# xmcd
#
# Track frame offsets:
#	150
#	17492
#	36280
#	51262
#	66487
#	81642
#	96590
#	116407
#
# Disc length: 1814 seconds
#
# Revision: 1
# Processed by: cddbd v1.5.1PL0 Copyright (c) Steve Scherf et al.
# Submitted via: CDex 1.50Beta5
#
DISCID=70071408
DTITLE=錦織健 - 永遠に
DYEAR=2003
DGENRE=
TTITLE0=永遠に(CMヴァージョン)
TTITLE1=ヴォラーレ
TTITLE2=カタリ・カタリ
TTITLE3=オー・ソレ・ミオ
TTITLE4=マッティナータ
TTITLE5=セレナータ
TTITLE6=グラナダ
TTITLE7=永遠に(ピアノ・ヴァージョン)
EXTD=
EXTT0=
EXTT1=
EXTT2=
EXTT3=
EXTT4=
EXTT5=
EXTT6=
EXTT7=
PLAYORDER=
